<?xml version="1.0" standalone="no"?>
<!DOCTYPE svg PUBLIC "-//W3C//DTD SVG 20010904//EN"
 "http://www.w3.org/TR/2001/REC-SVG-20010904/DTD/svg10.dtd">
<svg version="1.0" xmlns="http://www.w3.org/2000/svg"
 width="32.000000pt" height="32.000000pt" viewBox="0 0 32.000000 32.000000"
 preserveAspectRatio="xMidYMid meet">
<metadata>
Created by potrace 1.16, written by Peter Selinger 2001-2019
</metadata>
<g transform="translate(0.000000,32.000000) scale(0.100000,-0.100000)"
fill="#000000" stroke="none">
<path d="M122 280 c-19 -23 -36 -56 -39 -78 -7 -47 -19 -62 -49 -62 -13 0 -24
-3 -24 -7 0 -5 21 -32 46 -60 47 -53 70 -63 92 -41 9 9 15 9 24 0 22 -22 45
-12 92 41 25 28 46 55 46 60 0 4 -11 7 -24 7 -30 0 -42 15 -49 62 -5 32 -61
118 -77 118 -3 0 -20 -18 -38 -40z"/>
</g>
</svg>
